<svg width="95" height="82" viewBox="0 0 95 82" fill="none" xmlns="http://www.w3.org/2000/svg">
<path fill-rule="evenodd" clip-rule="evenodd" d="M72.1167 1.49627C71.5803 0.57017 70.5911 0 69.5208 0H25.4792C24.4089 0 23.4197 0.570168 22.8833 1.49627L0.871065 39.4963C0.332288 40.4264 0.332288 41.5736 0.871065 42.5037L22.8833 80.5037C23.4197 81.4298 24.4089 82 25.4792 82H69.5208C70.5911 82 71.5803 81.4298 72.1167 80.5037L94.1289 42.5037C94.6677 41.5736 94.6677 40.4264 94.1289 39.4963L72.1167 1.49627Z" fill="#949494" fill-opacity="0.8"/>
<path d="M63.7316 44.3072L58.2737 41.0957L58.3677 40.9889C58.7825 40.6332 59.119 40.1952 59.3557 39.7026C59.5924 39.2101 59.7242 38.6737 59.7428 38.1275V30.0133C59.7306 29.8728 59.6661 29.742 59.5621 29.6468C59.4582 29.5515 59.3223 29.4986 59.1812 29.4986C59.0402 29.4986 58.9043 29.5515 58.8004 29.6468C58.6964 29.742 58.6319 29.8728 58.6197 30.0133V37.7347L53.2813 35.3431C53.3819 35.0298 53.4324 34.7027 53.4308 34.3736V30.0048C53.4308 29.8564 53.3719 29.7141 53.267 29.6092C53.162 29.5043 53.0197 29.4453 52.8714 29.4453C52.723 29.4453 52.5807 29.5043 52.4758 29.6092C52.3709 29.7141 52.3119 29.8564 52.3119 30.0048V34.3651C52.3304 34.5698 52.3053 34.7761 52.2383 34.9704C52.1713 35.1648 52.0639 35.3427 51.9233 35.4926C51.6593 35.6928 51.3313 35.79 51.0008 35.7659H49.1431C48.4939 35.4157 47.0675 34.4377 47.3409 32.738C47.3516 32.6731 47.3437 32.6065 47.318 32.546C47.2923 32.4855 47.2498 32.4336 47.1957 32.3963C47.1393 32.359 47.0743 32.337 47.0069 32.3326C46.9395 32.3281 46.8721 32.3412 46.8113 32.3707L36.519 37.5553C36.4354 37.5964 36.3711 37.6683 36.3397 37.756C36.3397 37.803 34.8962 42.2402 38.586 44.6275C42.0751 46.8909 51.6927 51.1829 52.0984 51.3666C52.1511 51.3916 52.2087 51.4046 52.2671 51.4046C52.3254 51.4046 52.383 51.3916 52.4357 51.3666L63.7231 44.9264C63.7771 44.8973 63.8222 44.8542 63.8538 44.8016C63.8853 44.749 63.9021 44.6888 63.9024 44.6275C63.9029 44.5659 63.8869 44.5054 63.8561 44.4521C63.8253 44.3988 63.7809 44.3547 63.7274 44.3243L63.7316 44.3072ZM52.2308 50.6662C50.894 50.064 42.1819 46.1265 38.9917 44.0595C36.0621 42.1633 36.7924 38.845 36.9931 38.1275L46.5807 33.2974C46.6121 33.7775 46.742 34.246 46.9624 34.6736C47.1829 35.1013 47.489 35.4789 47.8619 35.783H45.2995C45.1556 35.783 45.0177 35.8401 44.916 35.9418C44.8143 36.0435 44.7571 36.1815 44.7571 36.3253C44.7571 36.4692 44.8143 36.6071 44.916 36.7089C45.0177 36.8106 45.1556 36.8677 45.2995 36.8677H48.6178V37.1752H44.4197C44.2759 37.1752 44.1379 37.2323 44.0362 37.3341C43.9345 37.4358 43.8774 37.5737 43.8774 37.7176C43.8774 37.8614 43.9345 37.9994 44.0362 38.1011C44.1379 38.2028 44.2759 38.2599 44.4197 38.2599H48.6263V38.4948H44.2062C44.1306 38.4881 44.0545 38.4972 43.9827 38.5215C43.9108 38.5459 43.8448 38.5849 43.7889 38.6361C43.7329 38.6873 43.6882 38.7496 43.6576 38.819C43.6271 38.8885 43.6113 38.9635 43.6113 39.0393C43.6113 39.1152 43.6271 39.1902 43.6576 39.2596C43.6882 39.3291 43.7329 39.3914 43.7889 39.4426C43.8448 39.4938 43.9108 39.5328 43.9827 39.5571C44.0545 39.5814 44.1306 39.5905 44.2062 39.5838H48.6562V39.8529H44.8596C44.7158 39.8529 44.5778 39.91 44.4761 40.0118C44.3744 40.1135 44.3172 40.2514 44.3172 40.3953C44.3172 40.5391 44.3744 40.6771 44.4761 40.7788C44.5778 40.8805 44.7158 40.9376 44.8596 40.9376H51.7653C51.7908 40.9396 51.8165 40.9396 51.8421 40.9376H52.4101V41.3647H50.2534C50.1417 41.3566 50.0294 41.3716 49.9237 41.4088C49.8179 41.446 49.721 41.5047 49.6389 41.581C49.5569 41.6573 49.4914 41.7498 49.4466 41.8525C49.4019 41.9553 49.3788 42.0662 49.3788 42.1783C49.3788 42.2904 49.4019 42.4012 49.4466 42.504C49.4914 42.6068 49.5569 42.6992 49.6389 42.7755C49.721 42.8519 49.8179 42.9105 49.9237 42.9477C50.0294 42.9849 50.1417 42.9999 50.2534 42.9918H53.1618C53.2221 42.9911 53.2823 42.9839 53.3411 42.9705C55.4765 42.8552 56.8516 42.3171 57.7271 41.6338L62.8305 44.6232L52.2308 50.6662Z" fill="white"/>
<path d="M37.8304 32.7027C37.8636 32.6701 37.89 32.6312 37.908 32.5883C37.926 32.5454 37.9352 32.4994 37.9352 32.4529C37.9352 32.4063 37.926 32.3603 37.908 32.3174C37.89 32.2745 37.8636 32.2356 37.8304 32.203L37.6041 31.9852H39.086C39.1355 31.9907 39.1857 31.9856 39.2331 31.9704C39.2806 31.9552 39.3243 31.9302 39.3614 31.8969C39.3985 31.8637 39.4282 31.823 39.4485 31.7775C39.4688 31.732 39.4793 31.6827 39.4793 31.6329C39.4793 31.5831 39.4688 31.5338 39.4485 31.4883C39.4282 31.4428 39.3985 31.4021 39.3614 31.3689C39.3243 31.3356 39.2806 31.3106 39.2331 31.2954C39.1857 31.2801 39.1355 31.2751 39.086 31.2806H37.6041L37.8304 31.067C37.8636 31.0344 37.89 30.9956 37.908 30.9527C37.926 30.9098 37.9352 30.8637 37.9352 30.8172C37.9352 30.7707 37.926 30.7246 37.908 30.6817C37.89 30.6388 37.8636 30.6 37.8304 30.5674C37.7607 30.5013 37.6682 30.4645 37.5721 30.4645C37.476 30.4645 37.3835 30.5013 37.3137 30.5674L37.0916 30.7852V29.3545C37.0894 29.259 37.0496 29.1682 36.9808 29.1018C36.912 29.0355 36.8199 28.9989 36.7244 29C36.6772 28.9995 36.6305 29.0082 36.5867 29.0257C36.543 29.0432 36.5031 29.0692 36.4694 29.1021C36.4357 29.135 36.4088 29.1742 36.3903 29.2175C36.3717 29.2608 36.3619 29.3074 36.3613 29.3545V30.7852L36.135 30.5674C36.0659 30.5016 35.9742 30.4649 35.8788 30.4649C35.7834 30.4649 35.6916 30.5016 35.6225 30.5674C35.5893 30.6 35.563 30.6388 35.545 30.6817C35.527 30.7246 35.5177 30.7707 35.5177 30.8172C35.5177 30.8637 35.527 30.9098 35.545 30.9527C35.563 30.9956 35.5893 31.0344 35.6225 31.067L35.8489 31.2806H34.3669C34.3174 31.2751 34.2673 31.2801 34.2199 31.2954C34.1724 31.3106 34.1287 31.3356 34.0916 31.3689C34.0545 31.4021 34.0248 31.4428 34.0045 31.4883C33.9841 31.5338 33.9736 31.5831 33.9736 31.6329C33.9736 31.6827 33.9841 31.732 34.0045 31.7775C34.0248 31.823 34.0545 31.8637 34.0916 31.8969C34.1287 31.9302 34.1724 31.9552 34.2199 31.9704C34.2673 31.9856 34.3174 31.9907 34.3669 31.9852H35.8489L35.6225 32.203C35.5893 32.2356 35.563 32.2745 35.545 32.3174C35.527 32.3603 35.5177 32.4063 35.5177 32.4529C35.5177 32.4994 35.527 32.5454 35.545 32.5883C35.563 32.6312 35.5893 32.6701 35.6225 32.7027C35.6916 32.7685 35.7834 32.8052 35.8788 32.8052C35.9742 32.8052 36.0659 32.7685 36.135 32.7027L36.3613 32.4849V33.9156C36.3619 33.9627 36.3717 34.0092 36.3903 34.0525C36.4088 34.0958 36.4357 34.1351 36.4694 34.168C36.5031 34.2009 36.543 34.2268 36.5867 34.2443C36.6305 34.2619 36.6772 34.2706 36.7244 34.27C36.8199 34.2712 36.912 34.2346 36.9808 34.1682C37.0496 34.1019 37.0894 34.0111 37.0916 33.9156V32.4849L37.3137 32.7027C37.3835 32.7688 37.476 32.8056 37.5721 32.8056C37.6682 32.8056 37.7607 32.7688 37.8304 32.7027" fill="white"/>
<path d="M42.2934 50.2308H40.8115L41.0336 50.013C41.0677 49.9814 41.095 49.9431 41.1136 49.9005C41.1323 49.8579 41.1419 49.8119 41.1419 49.7653C41.1419 49.7188 41.1323 49.6728 41.1136 49.6301C41.095 49.5875 41.0677 49.5492 41.0336 49.5176C40.965 49.4509 40.8731 49.4135 40.7773 49.4135C40.6816 49.4135 40.5897 49.4509 40.5211 49.5176L40.2947 49.7312V48.3005C40.2947 48.2042 40.2565 48.1119 40.1884 48.0438C40.1203 47.9757 40.028 47.9375 39.9317 47.9375C39.8355 47.9375 39.7431 47.9757 39.6751 48.0438C39.607 48.1119 39.5687 48.2042 39.5687 48.3005V49.7184L39.3424 49.5048C39.2738 49.438 39.1819 49.4007 39.0862 49.4007C38.9904 49.4007 38.8985 49.438 38.8299 49.5048C38.7958 49.5364 38.7685 49.5747 38.7499 49.6173C38.7312 49.66 38.7216 49.706 38.7216 49.7525C38.7216 49.7991 38.7312 49.8451 38.7499 49.8877C38.7685 49.9303 38.7958 49.9686 38.8299 50.0002L39.052 50.218H37.5701C37.5205 50.2126 37.4704 50.2176 37.423 50.2328C37.3755 50.248 37.3318 50.2731 37.2947 50.3063C37.2576 50.3396 37.2279 50.3803 37.2076 50.4258C37.1873 50.4713 37.1768 50.5205 37.1768 50.5703C37.1768 50.6202 37.1873 50.6694 37.2076 50.7149C37.2279 50.7604 37.2576 50.8011 37.2947 50.8344C37.3318 50.8676 37.3755 50.8927 37.423 50.9079C37.4704 50.9231 37.5205 50.9281 37.5701 50.9227H39.052L38.8299 51.1362C38.7956 51.1682 38.7683 51.2069 38.7496 51.2498C38.7309 51.2928 38.7213 51.3392 38.7213 51.3861C38.7213 51.4329 38.7309 51.4793 38.7496 51.5223C38.7683 51.5652 38.7956 51.6039 38.8299 51.6359C38.899 51.7017 38.9908 51.7384 39.0862 51.7384C39.1816 51.7384 39.2733 51.7017 39.3424 51.6359L39.5773 51.4266V52.8573C39.5773 52.9536 39.6155 53.0459 39.6836 53.114C39.7517 53.1821 39.844 53.2203 39.9403 53.2203C40.0366 53.2203 40.1289 53.1821 40.197 53.114C40.2651 53.0459 40.3033 52.9536 40.3033 52.8573V51.4266L40.5296 51.6444C40.5987 51.7102 40.6905 51.7469 40.7859 51.7469C40.8813 51.7469 40.973 51.7102 41.0421 51.6444C41.0764 51.6125 41.1037 51.5738 41.1224 51.5308C41.1411 51.4878 41.1507 51.4414 41.1507 51.3946C41.1507 51.3477 41.1411 51.3014 41.1224 51.2584C41.1037 51.2154 41.0764 51.1767 41.0421 51.1448L40.82 50.9312H42.302C42.3515 50.9367 42.4016 50.9316 42.4491 50.9164C42.4965 50.9012 42.5402 50.8762 42.5773 50.8429C42.6144 50.8097 42.6441 50.769 42.6644 50.7235C42.6848 50.678 42.6953 50.6287 42.6953 50.5789C42.6953 50.5291 42.6848 50.4798 42.6644 50.4343C42.6441 50.3888 42.6144 50.3481 42.5773 50.3149C42.5402 50.2816 42.4965 50.2566 42.4491 50.2414C42.4016 50.2262 42.3515 50.2211 42.302 50.2266" fill="white"/>
<path d="M65.6291 38.2383H64.1472L64.3735 38.0205C64.4071 37.9886 64.4339 37.9501 64.4522 37.9076C64.4705 37.865 64.4799 37.8191 64.4799 37.7728C64.4799 37.7264 64.4705 37.6806 64.4522 37.638C64.4339 37.5954 64.4071 37.557 64.3735 37.5251C64.3037 37.459 64.2113 37.4222 64.1152 37.4222C64.019 37.4222 63.9266 37.459 63.8568 37.5251L63.6305 37.7429V36.3122C63.6305 36.2159 63.5922 36.1236 63.5241 36.0555C63.4561 35.9875 63.3637 35.9492 63.2674 35.9492C63.1712 35.9492 63.0788 35.9875 63.0108 36.0555C62.9427 36.1236 62.9044 36.2159 62.9044 36.3122V37.76L62.6781 37.5422C62.609 37.4764 62.5173 37.4397 62.4218 37.4397C62.3264 37.4397 62.2347 37.4764 62.1656 37.5422C62.132 37.5741 62.1053 37.6125 62.087 37.6551C62.0687 37.6977 62.0593 37.7435 62.0593 37.7899C62.0593 37.8362 62.0687 37.8821 62.087 37.9246C62.1053 37.9672 62.132 38.0056 62.1656 38.0376L62.3877 38.2554H60.9314C60.8819 38.2499 60.8318 38.2549 60.7843 38.2702C60.7369 38.2854 60.6931 38.3104 60.656 38.3437C60.6189 38.3769 60.5892 38.4176 60.5689 38.4631C60.5486 38.5086 60.5381 38.5579 60.5381 38.6077C60.5381 38.6575 60.5486 38.7068 60.5689 38.7523C60.5892 38.7978 60.6189 38.8385 60.656 38.8717C60.6931 38.905 60.7369 38.93 60.7843 38.9452C60.8318 38.9604 60.8819 38.9655 60.9314 38.96H62.409L62.187 39.1778C62.1534 39.2097 62.1266 39.2482 62.1083 39.2907C62.0901 39.3333 62.0806 39.3792 62.0806 39.4255C62.0806 39.4719 62.0901 39.5177 62.1083 39.5603C62.1266 39.6029 62.1534 39.6413 62.187 39.6732C62.255 39.741 62.3472 39.7791 62.4432 39.7791C62.5393 39.7791 62.6314 39.741 62.6995 39.6732L62.9258 39.4597V40.8904C62.9258 40.9866 62.964 41.079 63.0321 41.147C63.1002 41.2151 63.1925 41.2534 63.2888 41.2534C63.3851 41.2534 63.4774 41.2151 63.5455 41.147C63.6136 41.079 63.6518 40.9866 63.6518 40.8904V39.4597L63.8781 39.6732C63.9469 39.7413 64.0398 39.7795 64.1365 39.7795C64.2333 39.7795 64.3261 39.7413 64.3949 39.6732C64.4285 39.6413 64.4552 39.6029 64.4735 39.5603C64.4918 39.5177 64.5012 39.4719 64.5012 39.4255C64.5012 39.3792 64.4918 39.3333 64.4735 39.2907C64.4552 39.2482 64.4285 39.2097 64.3949 39.1778L64.1685 38.96H65.6291C65.6786 38.9655 65.7288 38.9604 65.7762 38.9452C65.8237 38.93 65.8674 38.905 65.9045 38.8717C65.9416 38.8385 65.9713 38.7978 65.9916 38.7523C66.0119 38.7068 66.0224 38.6575 66.0224 38.6077C66.0224 38.5579 66.0119 38.5086 65.9916 38.4631C65.9713 38.4176 65.9416 38.3769 65.9045 38.3437C65.8674 38.3104 65.8237 38.2854 65.7762 38.2702C65.7288 38.2549 65.6786 38.2499 65.6291 38.2554" fill="white"/>
</svg>
