<svg width="95" height="83" viewBox="0 0 95 83" fill="none" xmlns="http://www.w3.org/2000/svg">
<path fill-rule="evenodd" clip-rule="evenodd" d="M72.1167 1.99627C71.5803 1.07017 70.5911 0.5 69.5208 0.5H25.4792C24.4089 0.5 23.4197 1.07017 22.8833 1.99627L0.871065 39.9963C0.332288 40.9264 0.332288 42.0736 0.871065 43.0037L22.8833 81.0037C23.4197 81.9298 24.4089 82.5 25.4792 82.5H69.5208C70.5911 82.5 71.5803 81.9298 72.1167 81.0037L94.1289 43.0037C94.6677 42.0736 94.6677 40.9264 94.1289 39.9963L72.1167 1.99627Z" fill="#949494" fill-opacity="0.8"/>
<path d="M50.8448 48.576C52.1996 51.0202 53.4234 53.2795 54.6607 55.5343C55.1114 54.587 55.4859 53.6053 55.7806 52.5986C56.4128 50.6595 56.2006 50.8398 58.0385 51.2006C58.9958 51.39 59.9351 51.7553 61.0912 51.7508C60.4544 50.5873 59.8854 49.5501 59.3255 48.5084C58.1107 46.2536 58.1153 46.2536 55.6632 46.452C55.4788 46.455 55.2985 46.5061 55.1401 46.6003C54.9816 46.6944 54.8506 46.8283 54.76 46.9887C54.3807 47.62 53.9517 48.2243 53.5724 48.8601C53.5315 48.9725 53.4644 49.0735 53.3765 49.1546C53.2885 49.2358 53.1824 49.2947 53.067 49.3265C52.9516 49.3583 52.8303 49.362 52.7132 49.3373C52.596 49.3127 52.4865 49.2604 52.3938 49.1848C51.9363 48.8716 51.415 48.6637 50.8674 48.576H50.8448ZM48.6502 48.8015C48.5145 48.7773 48.3753 48.7809 48.2411 48.8119C48.1068 48.8429 47.9802 48.9007 47.8689 48.9819C46.7581 49.5366 46.7581 49.5366 46.0897 48.4949C44.6447 46.2401 44.6447 46.2626 41.9894 46.3257C41.8328 46.316 41.6769 46.3539 41.5423 46.4344C41.4077 46.5149 41.3006 46.6343 41.2352 46.7767C40.454 48.2198 39.6592 49.6628 38.878 51.1059C38.7877 51.2683 38.6206 51.4486 38.738 51.638C38.8554 51.8274 39.1399 51.7327 39.3341 51.6921C40.3185 51.4892 41.3075 51.3088 42.2784 51.0428C43.0054 50.8489 43.3712 51.0428 43.6015 51.8094C43.9463 53.1188 44.3778 54.4038 44.893 55.6561L48.6502 48.797V48.8015ZM52.6241 48.1296C52.7347 48.1107 52.8381 48.0621 52.9233 47.989C53.0084 47.916 53.072 47.8211 53.1072 47.7147C53.8433 45.9109 55.1213 45.1037 57.0179 45.3742C57.5237 45.4419 57.7856 45.1442 57.7314 44.6121C57.5327 42.7497 58.183 41.4193 59.9216 40.7203C60.4544 40.4994 60.5402 40.1161 60.197 39.6471C59.1223 38.1814 59.0726 36.7158 60.197 35.2367C60.5809 34.7226 60.4048 34.3348 59.8674 34.0777C58.1965 33.3652 57.5463 32.0619 57.7495 30.2401C57.8082 29.7124 57.5508 29.4103 57.036 29.4825C55.1755 29.7575 53.9156 28.9684 53.175 27.2277C52.9718 26.7361 52.615 26.6234 52.1996 26.9526C50.7184 28.107 49.2462 28.1296 47.7651 26.9526C47.3135 26.5828 46.9658 26.7767 46.7084 27.2592C46.591 27.4892 46.4013 27.6831 46.302 27.9176C46.1274 28.4489 45.7642 28.8981 45.2809 29.1805C44.7977 29.463 44.2276 29.5591 43.6783 29.4509C43.6151 29.4465 43.5518 29.4465 43.4886 29.4509C42.1881 29.496 42.0842 29.505 42.1339 30.8804C42.2082 31.4817 42.0861 32.0909 41.7859 32.6174C41.4857 33.1439 41.0233 33.5596 40.4676 33.8026C39.298 34.4385 39.2528 34.5738 39.9618 35.6967C40.734 36.9142 40.6979 37.9514 39.9618 39.16C39.1264 40.5129 39.3522 40.4137 40.4134 40.9639C41.0002 41.2204 41.4869 41.6616 41.7992 42.2201C42.1114 42.7787 42.2322 43.4239 42.1429 44.0574C42.0661 45.3246 42.17 45.3336 43.3802 45.3878C43.505 45.3967 43.6303 45.3967 43.7551 45.3878C44.9246 45.2344 45.6517 45.7666 46.2568 46.8083C47.1916 48.4047 46.8574 48.4047 48.5147 47.4396C49.5804 46.8128 50.47 46.7767 51.4545 47.4847C51.836 47.7186 52.2345 47.9236 52.6466 48.098L52.6241 48.1296ZM41.1133 43.8365C41.3165 42.9345 40.8514 42.3754 40.0792 41.9515C39.5825 41.6809 39.1264 41.3201 38.6522 41.009C38.5657 40.9632 38.4899 40.8996 38.4296 40.8226C38.3694 40.7455 38.3261 40.6566 38.3027 40.5616C38.2792 40.4667 38.2761 40.3679 38.2936 40.2717C38.311 40.1755 38.3486 40.084 38.4038 40.0033C38.6367 39.472 38.899 38.9541 39.1896 38.452C39.422 38.1406 39.5475 37.7626 39.5475 37.3742C39.5475 36.9859 39.422 36.6079 39.1896 36.2964C38.8961 35.8455 38.6974 35.3179 38.449 34.8263C38.3832 34.7337 38.339 34.6275 38.3195 34.5156C38.3001 34.4037 38.3059 34.2888 38.3367 34.1794C38.3674 34.0701 38.4222 33.969 38.4971 33.8835C38.5721 33.798 38.6651 33.7303 38.7696 33.6854C39.3612 33.3156 39.9257 32.9007 40.5217 32.5354C40.7194 32.4283 40.8823 32.267 40.9911 32.0704C41.1 31.8738 41.1502 31.6502 41.1359 31.4261C41.1359 30.8714 41.1675 30.3212 41.1991 29.7666C41.2623 28.567 41.3527 28.4768 42.5539 28.4137C43.0551 28.4137 43.5609 28.3551 44.0621 28.3596C44.3161 28.3749 44.5688 28.314 44.7877 28.1845C45.0066 28.0551 45.1817 27.8632 45.2904 27.6335C45.6065 27.0743 45.9949 26.5602 46.32 26.0011C46.6452 25.4419 47.0787 25.284 47.5709 25.6673C49.2101 26.939 50.8087 26.8714 52.4344 25.6673C52.886 25.3201 53.3376 25.4644 53.622 25.983C53.8991 26.3783 54.1553 26.7877 54.3897 27.2096C54.8413 28.1611 55.5413 28.4182 56.5167 28.4272C59.0139 28.4498 58.7068 28.337 58.7746 30.7046C58.7606 31.1776 58.8802 31.645 59.1198 32.0533C59.3594 32.4617 59.7092 32.7944 60.1293 33.0135C62.1569 34.3032 62.1027 33.8928 60.9331 35.9763C60.2557 37.1758 60.5267 38.0416 61.0866 39.0924C61.9221 40.6482 61.8769 40.6752 60.4454 41.6132L60.2874 41.717C59.6235 42.2085 58.7565 42.4701 58.8062 43.6245C58.8423 44.4949 58.752 45.3201 59.2578 46.1454C60.3325 47.9492 61.2989 49.8071 62.2878 51.6561C62.4865 52.0304 62.9201 52.4272 62.5588 52.8872C62.1975 53.3472 61.8047 53.018 61.4163 52.9323C60.2196 52.6752 59.0139 52.4407 57.8037 52.1521C57.2573 52.0168 57.0089 52.1972 56.8463 52.7429C56.458 54.0958 56.0154 55.4035 55.5955 56.7339C55.5006 57.045 55.4284 57.4058 55.0671 57.4689C54.6155 57.5411 54.4891 57.1533 54.322 56.8466C53.0169 54.4701 51.7209 52.089 50.4113 49.7169C50.2668 49.4509 50.2126 49.0089 49.8468 49.027C49.5533 49.027 49.4901 49.4374 49.3546 49.6854C48.1083 51.9402 46.8755 54.195 45.6381 56.4723C45.5433 56.6437 45.4575 56.815 45.3582 56.9819C45.2091 57.2344 45.0601 57.5185 44.7259 57.478C44.3918 57.4374 44.2744 57.1487 44.1931 56.8646C43.7867 55.5659 43.3486 54.2761 42.9829 52.9639C42.7796 52.2198 42.4726 51.9853 41.7049 52.2062C40.5624 52.5354 39.3793 52.7339 38.2051 52.9774C37.8484 53.054 37.4465 53.266 37.171 52.8466C36.8956 52.4272 37.2072 52.1657 37.3697 51.8635C38.4987 49.7936 39.6276 47.7237 40.7656 45.6674C41.1159 45.1356 41.2515 44.4911 41.1449 43.8635" fill="white"/>
<path d="M54.7022 37.4454C54.6703 36.4852 54.3563 35.5555 53.7992 34.7721C53.242 33.9887 52.4665 33.3863 51.5691 33.0399C50.6717 32.6934 49.692 32.6183 48.7521 32.8237C47.8123 33.0292 46.9536 33.5061 46.2832 34.1953C45.6128 34.8845 45.1602 35.7553 44.9817 36.6995C44.8033 37.6436 44.9069 38.6193 45.2796 39.5051C45.6523 40.3909 46.2778 41.1476 47.078 41.6811C47.8782 42.2145 48.8179 42.5011 49.78 42.5052C50.437 42.4994 51.0863 42.3635 51.6902 42.1053C52.2942 41.8472 52.841 41.472 53.2988 41.0014C53.7565 40.5308 54.1163 39.9742 54.3572 39.3638C54.5981 38.7534 54.7154 38.1014 54.7022 37.4454ZM43.9185 37.4454C43.9156 36.6738 44.0648 35.9091 44.3578 35.1951C44.6507 34.4811 45.0817 33.8316 45.626 33.2839C46.1703 32.7362 46.8172 32.3009 47.53 32.0028C48.2428 31.7048 49.0073 31.5499 49.78 31.5469C50.5527 31.544 51.3184 31.693 52.0335 31.9856C52.7485 32.2781 53.3988 32.7085 53.9473 33.252C54.4958 33.7956 54.9317 34.4417 55.2301 35.1534C55.5286 35.8652 55.6837 36.6287 55.6867 37.4004C55.6867 40.8367 53.0856 43.5379 49.7755 43.5244C48.9891 43.5145 48.2124 43.3488 47.4905 43.0372C46.7685 42.7255 46.1157 42.2739 45.5697 41.7085C45.0237 41.1432 44.5955 40.4753 44.3097 39.7435C44.024 39.0118 43.8864 38.2307 43.905 37.4454" fill="white"/>
</svg>
